<?xml version="1.0" encoding="utf-8"?>
<!-- Generator: Adobe Illustrator 26.0.2, SVG Export Plug-In . SVG Version: 6.00 Build 0)  -->
<svg version="1.1" id="Layer_1" xmlns="http://www.w3.org/2000/svg" xmlns:xlink="http://www.w3.org/1999/xlink" x="0px" y="0px"
	 viewBox="0 0 1025.49 120.81" style="enable-background:new 0 0 1025.49 120.81;" xml:space="preserve">
<style type="text/css">
	.st0{fill:#FFFFFF;}
</style>
<g>
	<path class="st0" d="M723.79,60.4V0h-99.45v120.81h25.87V87.76h73.58v33.06h25.86V60.4H723.79z M697.76,60.4h-46.99V25.19h46.99
		V60.4z"/>
	<g>
		<polygon class="st0" points="513.69,25.19 513.69,52.33 612.55,52.33 612.55,77.51 513.69,77.51 513.69,95.61 612.55,95.61 
			612.55,120.81 487.24,120.81 487.24,0 612.55,0 612.55,25.19 		"/>
	</g>
	<g>
		<polygon class="st0" points="925,25.19 925,52.33 1023.86,52.33 1023.86,77.51 925,77.51 925,95.61 1023.86,95.61 1023.86,120.81 
			898.55,120.81 898.55,0 1023.86,0 1023.86,25.19 		"/>
	</g>
	<g>
		<polygon class="st0" points="787.9,25.19 787.9,52.83 886.76,52.83 886.76,120.81 761.44,120.81 761.44,95.61 860.3,95.61 
			860.3,78.01 761.44,78.01 761.44,0 886.76,0 886.76,25.19 		"/>
	</g>
	<polygon class="st0" points="338.35,0 338.35,120.81 310.91,120.81 310.91,25.19 275.7,25.19 275.7,0 	"/>
	<g>
		<polygon class="st0" points="263.91,0 263.91,120.81 236.55,120.81 236.55,25.19 166.11,25.19 166.11,120.81 138.74,120.81 
			138.74,0 		"/>
	</g>
	<g>
		<path class="st0" d="M1.64,0v120.81h125.31V0H1.64z M99.51,95.63H29.07V25.19h70.44V95.63z"/>
		
			<rect x="40.29" y="49.1" transform="matrix(0.7071 -0.7071 0.7071 0.7071 -23.9773 62.9285)" class="st0" width="47.37" height="22.62"/>
	</g>
	<g>
		<polygon class="st0" points="449.59,0 449.59,33.06 423.56,33.06 423.56,60.42 423.56,95.63 402.03,95.63 402.03,60.42 
			402.03,33.06 376,33.06 376,0 350.14,0 350.14,60.42 376,60.42 376,120.81 449.59,120.81 449.59,60.42 475.45,60.42 475.45,0 		
			"/>
	</g>
</g>
</svg>
