<?xml version="1.0" encoding="utf-8"?>
<!-- Generator: Adobe Illustrator 26.0.2, SVG Export Plug-In . SVG Version: 6.00 Build 0)  -->
<svg version="1.1" id="Layer_1" xmlns="http://www.w3.org/2000/svg" xmlns:xlink="http://www.w3.org/1999/xlink" x="0px" y="0px"
	 viewBox="0 0 1080 1920" style="enable-background:new 0 0 1080 1920;" xml:space="preserve">
<style type="text/css">
	.st0{fill:#EF4C52;}
	.st1{opacity:0.9;fill:#EF4C52;}
	.st2{opacity:0.8;fill:#EF4C52;}
	.st3{opacity:0.7;fill:#EF4C52;}
	.st4{opacity:0.6;fill:#EF4C52;}
	.st5{opacity:0.5;}
	.st6{opacity:0.25;}
	.st7{opacity:0.5;fill:#EF4C52;}
	.st8{opacity:0.25;fill:#EF4C52;}
</style>
<g>
	<rect x="67.82" y="1735.69" class="st0" width="11.84" height="123.17"/>
	<rect x="89.01" y="1756.31" class="st1" width="11.84" height="102.55"/>
	<rect x="110.21" y="1785.72" class="st2" width="11.84" height="73.14"/>
	<rect x="131.4" y="1810.54" class="st3" width="11.84" height="48.32"/>
	<rect x="152.6" y="1834.7" class="st4" width="11.84" height="24.16"/>
</g>
<g>
	<g>
		<polygon class="st0" points="125.6,118.93 136.67,77.62 147.42,80.5 134.69,128.01 		"/>
		<polygon class="st0" points="125.6,118.93 84.29,129.99 87.18,140.74 134.69,128.01 		"/>
	</g>
	<g class="st5">
		<polygon class="st0" points="106.47,99.79 115.47,66.19 124.22,68.54 113.86,107.18 		"/>
		<polygon class="st0" points="106.47,99.79 72.87,108.8 75.21,117.54 113.86,107.18 		"/>
	</g>
	<g class="st6">
		<polygon class="st0" points="91.08,84.4 97.31,61.14 103.36,62.77 96.19,89.52 		"/>
		<polygon class="st0" points="91.08,84.4 67.82,90.63 69.44,96.69 96.19,89.52 		"/>
	</g>
</g>
<g>
	<g>
		<polygon class="st0" points="680.04,1840.53 732.49,1840.53 714.16,1858.86 680.04,1858.86 		"/>
		<polygon class="st0" points="755.18,1840.53 777.49,1840.53 759.17,1858.86 736.84,1858.86 		"/>
		<polygon class="st0" points="800.17,1840.53 822.98,1840.53 804.64,1858.86 781.85,1858.86 		"/>
		<polygon class="st0" points="1003.32,1840.53 1003.32,1858.86 827.33,1858.86 845.66,1840.53 		"/>
		<polygon class="st0" points="1003.32,1746.25 1003.32,1858.86 984.99,1858.86 984.99,1840.53 994.15,1840.53 994.15,1746.25 		"/>
		<rect x="984.99" y="1746.25" class="st7" width="9.17" height="94.28"/>
	</g>
	<g>
		<polygon class="st0" points="811.3,1752.71 811.3,1819.38 796.16,1819.38 796.16,1766.61 776.72,1766.61 776.72,1752.71 		"/>
		<path class="st0" d="M756.98,1786.04v-33.33H702.1v66.67h14.28v-18.24h40.6v18.24h14.27v-33.34H756.98z M742.62,1786.04h-25.93
			v-19.43h25.93V1786.04z"/>
		<g>
			<polygon class="st0" points="907.22,1766.61 907.22,1781.59 961.78,1781.59 961.78,1795.49 907.22,1795.49 907.22,1805.48 
				961.78,1805.48 961.78,1819.38 892.63,1819.38 892.63,1752.71 961.78,1752.71 961.78,1766.61 			"/>
		</g>
		<g>
			<polygon class="st0" points="832.03,1766.61 832.03,1781.86 886.58,1781.86 886.58,1819.38 817.43,1819.38 817.43,1805.48 
				871.99,1805.48 871.99,1795.76 817.43,1795.76 817.43,1752.71 886.58,1752.71 886.58,1766.61 			"/>
		</g>
	</g>
</g>
<g>
	<rect x="944.86" y="64" class="st7" width="3" height="262.23"/>
	<polygon class="st0" points="999.39,380.3 986.61,393.09 986.61,481.56 999.39,481.56 	"/>
	<polygon class="st0" points="999.39,330.13 986.61,342.92 986.61,376.39 999.39,363.61 	"/>
	<polygon class="st0" points="999.39,280.72 986.61,293.51 986.61,326.23 999.39,313.44 	"/>
	<polygon class="st0" points="999.39,62.58 986.61,62.58 986.61,276.82 999.39,264.03 	"/>
	<polygon class="st8" points="1012.18,481.56 1012.18,367.51 999.39,380.3 999.39,481.56 	"/>
	<polygon class="st8" points="1012.18,350.82 1012.18,317.34 999.39,330.13 999.39,363.61 	"/>
	<polygon class="st8" points="1012.18,300.65 1012.18,267.94 999.39,280.72 999.39,313.44 	"/>
	<polygon class="st8" points="1012.18,251.24 1012.18,62.58 999.39,62.58 999.39,264.03 	"/>
</g>
</svg>
